<svg width="128" height="128" viewBox="0 0 128 128" xmlns="http://www.w3.org/2000/svg">
  <rect width="128" height="128" fill="purple" rx="40" ry="40"/>
  <g transform="translate(64,64)">
    <!-- Abstract background pattern -->
    <g opacity="0.2">
      <path d="M0,-50 Q20,-40 30,0 Q20,40 0,50 Q-20,40 -30,0 Q-20,-40 0,-50Z" fill="mediumpurple"/>
      <path d="M0,-40 Q15,-30 20,0 Q15,30 0,40 Q-15,30 -20,0 Q-15,-30 0,-40Z" fill="rebeccapurple"/>
    </g>
    <!-- Scissor handles -->
    <circle cx="-25" cy="25" r="12" fill="orange" stroke="black" stroke-width="2"/>
    <circle cx="25" cy="25" r="12" fill="orange" stroke="black" stroke-width="2"/>
    <!-- Scissor blades (shark-like) -->
    <path d="M-5,-5 L-45,-55 Q-40,-60 -35,-50 L-5,-5Z" fill="lightgray" stroke="black" stroke-width="2"/>
    <path d="M5,-5 L45,-55 Q40,-60 35,-50 L5,-5Z" fill="lightgray" stroke="black" stroke-width="2"/>
    <!-- Joint -->
    <circle cx="0" cy="0" r="4" fill="black"/>
  </g>
</svg>